<svg xmlns="http://www.w3.org/2000/svg" width="1200" height="228" viewBox="0 0 1200 228" version="1.1">
	<path d="M 288.820 2.250 C 288.343 5.607, 279.538 10.156, 276.072 8.836 C 274.657 8.297, 269.675 7.815, 265 7.764 C 258.299 7.692, 254.768 8.241, 248.318 10.358 C 239.579 13.227, 235.985 15.710, 224.750 26.642 C 219.591 31.662, 218 33.869, 218 36.007 C 218 38.131, 217.338 39.064, 215.250 39.882 C 209.186 42.258, 198.729 50.735, 195.453 55.931 C 185.388 71.894, 190.158 100.485, 207.477 128 C 213.839 138.108, 217.493 142.890, 223.794 149.351 L 229.500 155.201 235.500 154.561 C 248.216 153.202, 247.752 153.456, 246.966 148.278 C 246.553 145.553, 245.467 143.068, 244.270 142.108 C 241.457 139.851, 239.602 134.090, 241.458 133.378 C 243.081 132.755, 247 134.634, 247 136.035 C 247 137.906, 251.919 137.020, 253.027 134.949 C 253.631 133.821, 255.556 131.530, 257.305 129.859 C 260.362 126.937, 260.729 126.845, 266.743 127.489 C 271.125 127.958, 273 127.820, 273 127.029 C 273 126.407, 274.679 125.196, 276.731 124.339 L 280.462 122.780 277.731 120.602 C 276.229 119.405, 275 117.949, 275 117.367 C 275 116.786, 274.051 115.453, 272.892 114.405 C 271.732 113.357, 269.685 110.475, 268.341 108 C 260.065 92.754, 257.953 88.350, 256.470 83.249 C 254.371 76.028, 250.052 70.460, 245.906 69.631 C 242.960 69.042, 242.814 68.805, 243.419 65.581 C 243.803 63.533, 243.631 61.890, 242.990 61.494 C 242.401 61.130, 240.772 59.016, 239.371 56.796 C 237.970 54.576, 235.513 52.265, 233.912 51.661 C 230.890 50.520, 230.620 49.831, 231.905 46.546 C 232.676 44.574, 230.397 41.956, 225.500 39.190 C 223.916 38.296, 225.730 38.054, 234.226 38.030 C 243.220 38.005, 245.480 38.322, 248.226 39.996 C 250.404 41.324, 253.269 41.994, 256.784 41.996 C 261.749 42, 262.190 41.792, 264.102 38.552 C 265.989 35.353, 266.329 35.187, 268.818 36.241 C 270.293 36.866, 272.650 38.417, 274.055 39.689 C 275.460 40.960, 277.011 42, 277.501 42 C 277.991 42, 280.063 43.158, 282.105 44.573 C 287.358 48.213, 294.020 48.404, 296.862 44.996 C 300.457 40.686, 300.564 38.865, 297.378 36.287 C 295.795 35.006, 293.600 33.710, 292.500 33.407 C 291.400 33.104, 289.809 31.394, 288.965 29.608 L 287.430 26.360 291.330 24.464 C 293.474 23.420, 295.451 21.989, 295.721 21.283 C 295.992 20.578, 297.178 19.993, 298.357 19.985 C 303.070 19.951, 305.269 15.459, 302.014 12.513 C 300.906 11.510, 300 10.089, 300 9.354 C 300 8.620, 298.431 7.002, 296.512 5.759 C 294.594 4.517, 293.019 2.712, 293.012 1.750 C 292.993 -0.937, 289.208 -0.485, 288.820 2.250 M 735.500 5.210 C 728.987 6.319, 708.853 12.675, 708.016 13.886 C 707.732 14.296, 705.025 16.259, 702 18.248 C 693.664 23.730, 689.541 28.569, 684.318 39 C 683.354 40.925, 681.816 43.625, 680.900 45 C 677.358 50.318, 675.703 68.233, 677.436 82.500 C 678.334 89.896, 681.695 97.778, 687.422 105.919 C 691.071 111.107, 706.489 126.780, 711.912 130.815 C 725.476 140.907, 739.509 154.796, 742.409 161 C 743.566 163.475, 745.297 166.613, 746.256 167.973 C 747.537 169.788, 748 172.422, 748 177.885 C 748 184.147, 747.576 186.050, 745.318 189.912 C 741.769 195.985, 735.337 202.274, 731 203.912 C 729.075 204.639, 725.925 205.969, 724 206.867 C 721.507 208.030, 718.053 208.453, 712 208.335 C 701.818 208.138, 690.430 204.232, 683.514 198.565 C 679.442 195.228, 672.007 183.786, 671.994 180.838 C 671.987 178.951, 670.157 172.756, 669.142 171.176 C 668.441 170.085, 667.665 170.113, 664.747 171.333 C 661.434 172.717, 661.095 173.288, 659.547 180.095 C 658.636 184.100, 657.260 188.530, 656.489 189.939 C 655.718 191.347, 653.958 195.745, 652.579 199.712 L 650.070 206.924 654.296 210.387 C 656.620 212.291, 661.096 214.812, 664.242 215.989 C 667.388 217.166, 670.189 218.496, 670.466 218.945 C 670.743 219.393, 675.926 220.786, 681.985 222.042 C 691.183 223.947, 693 224.627, 693 226.162 C 693 227.885, 694.253 228, 713 228 C 731.722 228, 733 227.883, 733 226.168 C 733 224.672, 734.769 223.930, 742.656 222.118 C 747.967 220.898, 753.427 219.022, 754.791 217.950 C 756.154 216.877, 757.655 216, 758.125 216 C 758.596 216, 762.022 213.944, 765.740 211.431 C 772.304 206.995, 780.167 198.137, 783.411 191.527 C 793.632 170.697, 794.450 152.952, 785.986 135.694 C 780.452 124.411, 778.557 121.640, 772.368 115.787 C 769.416 112.995, 767 110.100, 767 109.355 C 767 108.610, 766.631 108, 766.180 108 C 765.729 108, 763.898 106.763, 762.111 105.250 C 760.324 103.737, 755.037 99.350, 750.363 95.500 C 737.104 84.580, 727.715 75.055, 723.619 68.370 C 720.419 63.147, 719.779 61.116, 719.289 54.639 C 718.854 48.880, 719.114 46.002, 720.363 42.769 C 722.463 37.332, 728.493 30.827, 733.004 29.135 C 734.927 28.413, 737.850 27.075, 739.500 26.161 C 741.689 24.949, 744.934 24.509, 751.500 24.532 C 765.327 24.582, 772.997 28.711, 782.279 41.103 C 783.257 42.409, 784.964 46.520, 786.071 50.239 C 788.048 56.878, 788.147 57, 791.507 57 C 795.433 57, 796.542 55.513, 798.539 47.568 C 799.240 44.781, 801.448 38.230, 803.445 33.011 C 805.442 27.792, 806.947 22.678, 806.788 21.647 C 806.171 17.632, 779.450 6.299, 768.500 5.408 C 755.720 4.369, 740.958 4.280, 735.500 5.210 M 475.168 6.119 C 469.792 7.399, 468.231 10.539, 467.400 21.748 C 467.083 26.012, 466.207 31.757, 465.452 34.515 C 464.698 37.274, 463.157 45.289, 462.028 52.328 C 460.899 59.366, 459.343 66.637, 458.571 68.485 C 457.798 70.334, 456.683 75.824, 456.092 80.686 C 455.500 85.548, 453.927 93.795, 452.595 99.013 C 451.263 104.231, 449.855 110.975, 449.467 114 C 449.079 117.025, 447.933 122.200, 446.921 125.500 C 445.909 128.800, 444.349 135.775, 443.455 141 C 442.561 146.225, 441.247 151.850, 440.535 153.500 C 439.823 155.150, 438.496 161.004, 437.586 166.509 C 436.676 172.014, 435.286 178.392, 434.497 180.682 C 433.709 182.972, 432.606 187.705, 432.048 191.199 C 431.490 194.693, 429.972 200.690, 428.675 204.526 C 423.087 221.054, 423.796 222.414, 437.952 222.321 C 443.559 222.284, 448.593 221.807, 449.138 221.262 C 450.685 219.715, 453.864 206.429, 455.062 196.500 C 455.659 191.550, 457.071 183.900, 458.198 179.500 C 459.326 175.100, 460.801 167.450, 461.475 162.500 C 462.689 153.594, 464.454 144.737, 470.044 119.500 C 471.627 112.350, 473.356 104.025, 473.886 101 C 474.416 97.975, 475.369 94.150, 476.006 92.500 C 476.642 90.850, 477.796 85.921, 478.570 81.547 C 479.344 77.172, 480.594 72.977, 481.347 72.224 C 482.507 71.065, 483.180 71.441, 485.737 74.677 C 490.253 80.393, 498 91.897, 498 92.887 C 498 93.365, 498.735 94.365, 499.633 95.110 C 500.530 95.855, 502.218 97.872, 503.383 99.592 C 508.385 106.979, 515.618 117.936, 519.165 123.500 C 521.269 126.800, 523.354 129.950, 523.797 130.500 C 524.241 131.050, 526.709 134.650, 529.282 138.500 C 531.856 142.350, 534.892 146.850, 536.031 148.500 C 537.169 150.150, 540.440 155.041, 543.300 159.369 C 546.160 163.697, 550.178 169.772, 552.229 172.869 C 554.281 175.966, 556.663 179.850, 557.523 181.500 C 558.383 183.150, 560.080 185.913, 561.294 187.640 C 562.507 189.367, 564.286 192.067, 565.246 193.640 C 566.207 195.213, 568.345 198.525, 569.998 201 C 571.651 203.475, 573.972 207.525, 575.157 210 C 576.342 212.475, 579.041 216.843, 581.156 219.707 C 583.270 222.571, 585 225.609, 585 226.457 C 585 227.762, 586.852 228, 597 228 C 607.171 228, 609 227.764, 609 226.450 C 609 225.598, 609.664 223.616, 610.476 222.046 C 612.344 218.435, 615.418 204.693, 617.506 190.619 C 618.394 184.635, 619.740 178.110, 620.497 176.119 C 621.253 174.129, 622.357 168.675, 622.950 164 C 623.543 159.325, 625.147 151.001, 626.514 145.502 C 627.881 140.004, 629 134.091, 629 132.364 C 629 130.637, 630.116 125.374, 631.479 120.669 C 632.842 115.964, 634.236 110.176, 634.577 107.807 C 634.917 105.438, 636.474 98.325, 638.036 92 C 639.599 85.675, 641.549 77.350, 642.371 73.500 C 643.193 69.650, 644.557 63.800, 645.402 60.500 C 647.742 51.358, 651.062 37.194, 652.437 30.477 C 653.116 27.164, 654.501 21.817, 655.514 18.594 C 657.310 12.884, 657.310 12.700, 655.488 11.367 C 653.270 9.746, 635.902 9.447, 633.035 10.981 C 631.689 11.702, 631.023 13.632, 630.534 18.231 C 629.718 25.900, 623.752 57.380, 620.913 69 C 619.770 73.675, 618.202 81.707, 617.427 86.849 C 616.653 91.991, 615.115 99.126, 614.010 102.704 C 612.904 106.283, 611.999 110.626, 611.997 112.355 C 611.996 114.085, 610.818 119.775, 609.379 125 C 607.941 130.225, 606.565 135.625, 606.321 137 C 603.805 151.223, 602.844 154.029, 599.979 155.511 C 598.395 156.330, 596.951 157, 596.769 157 C 596.300 157, 589.737 147.713, 584.486 139.618 C 582.031 135.833, 579.429 132.233, 578.704 131.618 C 577.980 131.003, 574.306 125.775, 570.540 120 C 566.774 114.225, 562.922 108.361, 561.979 106.969 C 561.036 105.577, 559.353 102.652, 558.239 100.469 C 557.124 98.286, 555.265 95.643, 554.106 94.595 C 552.948 93.547, 552 92.258, 552 91.729 C 552 91.200, 550.482 88.683, 548.627 86.134 C 546.771 83.585, 544.941 80.487, 544.559 79.250 C 544.177 78.013, 543.489 77, 543.028 77 C 542.568 77, 540.787 74.638, 539.071 71.750 C 537.355 68.862, 534.627 64.475, 533.009 62 C 531.392 59.525, 529.092 55.700, 527.900 53.500 C 526.707 51.300, 525.406 49.275, 525.009 49 C 523.932 48.254, 515 33.285, 515 32.225 C 515 31.722, 514.141 30.533, 513.091 29.583 C 512.042 28.633, 510.609 26.425, 509.909 24.678 C 509.208 22.930, 507.845 20.462, 506.880 19.194 C 505.914 17.926, 504.174 14.925, 503.012 12.524 C 501.519 9.441, 499.960 7.821, 497.700 7.005 C 493.230 5.390, 480.352 4.884, 475.168 6.119 M 99.908 8.037 C 93.533 8.437, 87.396 9.057, 86.271 9.414 C 82.536 10.600, 58.529 10.239, 54.166 8.932 C 50.133 7.723, 49.825 7.792, 46.235 10.693 C 42.525 13.692, 42.495 13.775, 41.812 23.106 C 41.434 28.273, 39.974 37.900, 38.567 44.500 C 37.161 51.100, 36.013 57.625, 36.017 59 C 36.020 60.375, 34.710 67.575, 33.106 75 C 31.502 82.425, 29.484 92.325, 28.622 97 C 25.292 115.070, 21.026 135.085, 20.148 136.754 C 19.643 137.714, 18.903 140.975, 18.503 144 C 18.103 147.025, 16.690 153.775, 15.363 159 C 14.036 164.225, 12.247 171.866, 11.387 175.980 C 10.528 180.094, 9.389 184.274, 8.857 185.268 C 8.325 186.262, 7.226 190.546, 6.415 194.788 C 4.135 206.713, 3.064 210, 1.461 210 C 0.346 210, 0 211.386, 0 215.858 L 0 221.715 5.750 222.126 C 8.912 222.352, 29.500 222.521, 51.500 222.502 C 94.276 222.466, 107.646 221.515, 114.461 218.027 C 116.640 216.912, 119.019 216, 119.747 216 C 123.519 216, 136.919 207.418, 143 201.109 C 152.514 191.237, 154.048 189.131, 156.176 183.024 C 159.858 172.457, 160.170 170.659, 160.335 159.113 L 160.500 147.500 156.077 138.567 C 153.376 133.113, 149.993 128.043, 147.388 125.547 C 143.253 121.586, 132.627 115.967, 122.615 112.448 C 116.809 110.408, 117.533 109.705, 127.647 107.567 C 140.943 104.756, 160.289 93.694, 165.390 85.987 C 166.825 83.818, 168 81.765, 168 81.426 C 168 81.086, 168.847 79.614, 169.882 78.154 C 173.113 73.596, 175.195 65.881, 175.995 55.500 C 176.651 46.993, 176.466 44.381, 174.756 38 C 173.650 33.875, 171.790 29.522, 170.623 28.327 C 169.455 27.131, 167.471 24.790, 166.213 23.124 C 162.877 18.705, 151.864 13.248, 141.500 10.879 C 136.550 9.748, 131.341 8.463, 129.924 8.024 C 128.465 7.571, 126.590 7.650, 125.600 8.204 C 123.917 9.146, 116.106 8.915, 113 7.832 C 112.175 7.544, 106.284 7.636, 99.908 8.037 M 1123 7.725 C 1121.075 7.878, 1116.800 8.506, 1113.500 9.119 C 1105.627 10.583, 1084.953 10.470, 1080.310 8.937 C 1077.182 7.905, 1076.175 7.990, 1073.323 9.525 C 1069.576 11.543, 1068.887 13.445, 1067.010 26.934 C 1066.365 31.572, 1065.217 36.972, 1064.459 38.934 C 1063.701 40.895, 1062.607 46.917, 1062.028 52.317 C 1061.450 57.716, 1060.122 64.691, 1059.079 67.817 C 1058.035 70.942, 1056.653 77.100, 1056.008 81.500 C 1055.363 85.900, 1053.983 92.875, 1052.941 97 C 1051.900 101.125, 1050.356 108.550, 1049.512 113.500 C 1048.667 118.450, 1047.324 124.525, 1046.528 127 C 1045.731 129.475, 1044.379 135.628, 1043.522 140.674 C 1042.666 145.720, 1041.308 151.709, 1040.506 153.984 C 1039.703 156.258, 1038.396 161.849, 1037.600 166.409 C 1036.804 170.968, 1035.479 176.312, 1034.655 178.284 C 1033.831 180.256, 1032.637 185.295, 1032.003 189.482 C 1031.368 193.668, 1029.786 200.219, 1028.487 204.038 C 1025.184 213.749, 1024.455 219.303, 1026.283 220.820 C 1027.292 221.657, 1033.356 222.052, 1046.118 222.111 C 1074.319 222.242, 1071.764 222.611, 1072.877 218.250 C 1075.940 206.253, 1079.003 191.726, 1079.550 186.611 C 1079.896 183.373, 1081.219 176.623, 1082.491 171.611 C 1083.763 166.600, 1085.106 160.250, 1085.475 157.500 C 1085.844 154.750, 1087.238 148.143, 1088.573 142.819 C 1089.908 137.494, 1091 132.051, 1091 130.724 C 1091 129.396, 1091.862 127.530, 1092.915 126.577 C 1094.684 124.976, 1095.019 124.966, 1097.273 126.444 C 1098.617 127.324, 1100.395 129.722, 1101.224 131.772 C 1102.053 133.822, 1103.739 137.975, 1104.970 141 C 1106.201 144.025, 1108.080 149.200, 1109.146 152.500 C 1110.211 155.800, 1111.925 160.300, 1112.954 162.500 C 1113.983 164.700, 1115.145 168.075, 1115.535 170 C 1115.925 171.925, 1117.026 175.075, 1117.983 177 C 1118.939 178.925, 1120.719 183.628, 1121.939 187.450 C 1123.158 191.273, 1124.735 195.548, 1125.444 196.950 C 1126.152 198.353, 1127.311 201.962, 1128.019 204.971 C 1129.531 211.399, 1133.400 220.511, 1135.051 221.531 C 1135.687 221.925, 1146.146 222.236, 1158.293 222.224 C 1186.008 222.197, 1185.595 222.471, 1178.935 208.500 C 1174.039 198.227, 1169 186.305, 1169 184.992 C 1169 184.301, 1168.091 182.266, 1166.981 180.469 C 1165.870 178.672, 1164.073 174.618, 1162.986 171.460 C 1161.900 168.302, 1160.617 165.219, 1160.136 164.609 C 1159.654 163.999, 1158.691 161.700, 1157.994 159.500 C 1157.297 157.300, 1155.725 153.475, 1154.500 151 C 1153.276 148.525, 1151.717 144.137, 1151.037 141.250 C 1150.357 138.363, 1149.417 136, 1148.948 136 C 1148.478 136, 1147.189 132.981, 1146.082 129.291 C 1144.265 123.235, 1144.219 122.416, 1145.608 120.881 C 1146.455 119.945, 1148.352 118.888, 1149.824 118.531 C 1155.266 117.212, 1168.638 111.477, 1173 108.592 C 1184.451 101.018, 1189.630 95.135, 1194.430 84.250 C 1195.660 81.459, 1196.938 80, 1198.152 80 C 1199.889 80, 1200 78.772, 1200 59.500 C 1200 40.059, 1199.902 39, 1198.109 39 C 1196.857 39, 1195.707 37.730, 1194.710 35.250 C 1192.547 29.865, 1182.448 19.982, 1174.656 15.624 C 1170.693 13.408, 1165.604 11.503, 1162.169 10.950 C 1158.980 10.436, 1154.309 9.395, 1151.787 8.636 C 1149.084 7.823, 1146.648 7.608, 1145.851 8.113 C 1144.159 9.185, 1130.456 9.271, 1128.184 8.223 C 1127.258 7.796, 1124.925 7.572, 1123 7.725 M 849.898 10.287 C 846.748 12.408, 846.450 13.073, 845.822 19.398 C 844.421 33.496, 834.053 83.216, 824.947 119.500 C 820.345 137.840, 818.664 148.842, 818.271 163.211 C 817.862 178.164, 819.385 185.880, 824.442 194.475 C 831.912 207.171, 848.976 218.480, 866.250 222.184 C 874.345 223.920, 876 224.591, 876 226.137 C 876 227.905, 877.282 228, 901 228 C 924.302 228, 926 227.879, 926 226.220 C 926 224.758, 927.739 224.122, 935.750 222.652 C 942.086 221.490, 947.333 219.837, 950.735 217.932 C 953.614 216.319, 956.539 214.998, 957.235 214.995 C 960.993 214.982, 983 197.404, 983 194.416 C 983 193.964, 984.306 192.224, 985.902 190.548 C 989.670 186.590, 999.319 167.462, 1002.068 158.500 C 1003.249 154.650, 1004.504 151.050, 1004.858 150.500 C 1005.211 149.950, 1006.222 146.350, 1007.104 142.500 C 1009.246 133.150, 1013.718 115.149, 1016.047 106.500 C 1017.083 102.650, 1018.432 96.350, 1019.042 92.500 C 1019.653 88.650, 1021.005 82.800, 1022.045 79.500 C 1023.086 76.200, 1024.403 70.503, 1024.973 66.839 C 1025.543 63.176, 1026.886 57.326, 1027.956 53.839 C 1029.026 50.353, 1030.597 44.125, 1031.446 40 C 1032.295 35.875, 1033.847 30.249, 1034.896 27.499 C 1037.681 20.194, 1038.420 13.896, 1036.755 11.652 C 1035.601 10.097, 1033.808 9.773, 1025.442 9.609 C 1014.946 9.402, 1010.590 10.538, 1009.594 13.739 C 1009.293 14.708, 1008.359 20.427, 1007.520 26.448 C 1006.680 32.470, 1005.133 40.570, 1004.081 44.448 C 1003.029 48.327, 1001.879 54.200, 1001.525 57.500 C 1001.172 60.800, 999.815 67.550, 998.510 72.500 C 997.205 77.450, 995.451 84.875, 994.612 89 C 990.546 108.991, 987.929 120.265, 986.910 122.168 C 986.295 123.318, 984.988 128.176, 984.008 132.962 C 983.027 137.748, 981.536 142.998, 980.693 144.627 C 979.851 146.256, 978.455 150.314, 977.592 153.644 C 975.748 160.760, 970.315 172.792, 966.321 178.606 C 960.392 187.236, 951.539 195.483, 944.923 198.539 C 943.040 199.408, 940.393 200.744, 939.041 201.507 C 935.595 203.449, 910.703 207.193, 906 206.476 C 885.710 203.382, 883.437 202.791, 878.165 199.236 C 874.969 197.081, 871.159 193.205, 868.665 189.569 L 864.500 183.500 864.185 170 C 863.960 160.356, 864.319 154.501, 865.443 149.500 C 866.308 145.650, 867.504 139.575, 868.102 136 C 868.699 132.425, 870.097 125.675, 871.207 121 C 872.317 116.325, 874.265 107.676, 875.535 101.780 C 876.806 95.884, 878.115 90.624, 878.444 90.091 C 878.774 89.557, 880.154 83.806, 881.511 77.311 C 884.473 63.135, 889.519 44.312, 890.794 42.678 C 891.300 42.030, 892.268 38.575, 892.946 35 C 893.625 31.425, 895.039 26.041, 896.090 23.035 C 898.139 17.171, 898.510 12.354, 897.085 10.103 C 896.380 8.990, 894.605 8.861, 888.350 9.469 C 877.787 10.495, 862.299 10.264, 858.007 9.016 C 853.471 7.697, 853.830 7.641, 849.898 10.287 M 90.047 29.934 C 87.077 34.105, 85.249 39.819, 83.518 50.341 C 82.689 55.378, 81.303 61.508, 80.437 63.961 C 79.572 66.415, 78.477 71.815, 78.003 75.961 C 77.529 80.108, 76.380 86.842, 75.451 90.926 C 73.821 98.083, 73.827 98.403, 75.630 99.774 C 78.296 101.801, 95.631 100.668, 101.327 98.094 C 103.622 97.056, 107.114 95.539, 109.086 94.723 C 111.058 93.907, 115.108 90.504, 118.086 87.160 C 122.539 82.160, 124.057 79.432, 126.638 71.791 C 133.992 50.020, 127.646 32.478, 111 28.560 C 107.425 27.718, 101.718 27.023, 98.318 27.015 C 92.614 27.001, 91.975 27.227, 90.047 29.934 M 1115.265 29.106 C 1111.831 31.305, 1110.715 34.165, 1109.568 43.712 C 1109.223 46.578, 1108.082 51.612, 1107.033 54.897 C 1105.983 58.183, 1104.637 64.388, 1104.041 68.686 C 1103.445 72.984, 1102.082 79.650, 1101.011 83.500 C 1099.941 87.350, 1098.682 93.765, 1098.213 97.755 C 1097.460 104.161, 1097.578 105.243, 1099.219 107.005 C 1101.437 109.386, 1107.655 109.584, 1118.602 107.623 C 1131.376 105.334, 1139.783 98.479, 1146.156 85.154 C 1149.403 78.365, 1150.322 75.099, 1151.081 67.654 C 1153.433 44.585, 1147.124 32.236, 1131.129 28.597 C 1121.959 26.512, 1119.176 26.601, 1115.265 29.106 M 361.664 75.064 C 362.388 75.788, 363.809 75.817, 366.114 75.154 L 369.500 74.180 365.050 74.090 C 361.905 74.026, 360.912 74.312, 361.664 75.064 M 230.252 119.500 C 230.263 121.700, 230.468 122.482, 230.707 121.238 C 230.946 119.994, 230.937 118.194, 230.687 117.238 C 230.437 116.282, 230.241 117.300, 230.252 119.500 M 71.859 120.692 C 68.811 122.583, 67.488 126.349, 65.928 137.563 C 65.321 141.928, 63.991 147.975, 62.972 151 C 61.953 154.025, 60.623 160.100, 60.015 164.500 C 59.408 168.900, 58.052 175.426, 57.002 179.003 C 55.952 182.579, 54.671 188.879, 54.155 193.003 C 53.013 202.134, 54.206 204.951, 59.273 205.085 C 71.908 205.419, 84.840 203.295, 89.001 200.203 C 93.994 196.492, 100.898 189.754, 103.323 186.223 C 104.730 184.175, 107.335 178, 109.112 172.500 C 113.396 159.240, 113.534 151.509, 109.681 140.581 C 105.904 129.866, 105.730 129.602, 99.336 124.879 C 94.525 121.325, 92.725 120.622, 86.616 119.913 C 76.574 118.748, 74.844 118.840, 71.859 120.692 M 235.559 125.905 C 234.332 127.889, 235.808 132.011, 237.510 131.358 C 239.360 130.648, 239.411 128.944, 237.653 126.540 C 236.672 125.199, 236.102 125.026, 235.559 125.905 M 404.975 141.757 C 402.323 143.587, 398.613 146.912, 393.355 152.171 C 389.650 155.877, 389.253 157.789, 388.360 176.214 C 387.689 190.051, 388.222 193, 391.392 193 C 392.389 193, 402.995 180.937, 409.772 172.095 C 415.474 164.655, 414.949 139.982, 409.089 140.007 C 408.215 140.010, 406.364 140.798, 404.975 141.757 M 322.143 154.512 C 319.849 158.001, 315.105 163.372, 311.601 166.449 C 308.096 169.526, 304.513 173.496, 303.637 175.272 C 302.762 177.047, 302.035 177.982, 302.023 177.348 C 302.010 176.714, 300.583 175.702, 298.851 175.098 C 294.489 173.577, 268.967 173.689, 263.960 175.250 C 260.211 176.419, 259.991 176.694, 260.570 179.500 C 260.910 181.150, 262.297 183.344, 263.652 184.376 C 265.007 185.407, 272.053 191.174, 279.308 197.190 C 299.744 214.135, 301.247 215.349, 304.779 217.750 C 308.823 220.499, 309.225 220.514, 311.500 218 C 313.696 215.573, 318.280 215.421, 326 217.517 C 339.983 221.315, 351.768 220.168, 353.917 214.802 C 358.153 204.224, 359.543 192.572, 357.099 188.123 C 355.870 185.885, 355.419 185.783, 349.444 186.395 C 343.682 186.986, 342.992 186.854, 341.983 184.968 C 341.042 183.210, 341.270 182.576, 343.455 180.857 C 347.541 177.643, 349.044 173.689, 349.116 165.963 C 349.190 158.094, 348.334 156.439, 343.681 155.457 C 341.931 155.088, 338.475 153.721, 336 152.419 C 326.545 147.448, 326.814 147.407, 322.143 154.512 M 328.267 188.600 C 328.597 188.930, 330.502 189.200, 332.500 189.200 C 334.498 189.200, 336.403 188.930, 336.733 188.600 C 337.063 188.270, 335.158 188, 332.500 188 C 329.842 188, 327.937 188.270, 328.267 188.600" stroke="none" fill="black" fill-rule="evenodd"/>
</svg>